<svg width="168" height="24" xmlns="http://www.w3.org/2000/svg">
  <g id="Page-1" fill="none" fill-rule="evenodd">
    <g id="Market-desktop" transform="translate(-172 -82)" fill="#000">
      <path d="M199.98 105.541c.071 0 .108.074.108.22 0 .147-.037.22-.109.22a33.16 33.16 0 0 1-1.769-.036l-2.49-.037-2.311.037a27.37 27.37 0 0 1-1.625.036c-.048 0-.072-.073-.072-.22 0-.146.024-.22.072-.22.818 0 1.426-.067 1.823-.201.397-.135.662-.373.794-.715.133-.343.175-.88.127-1.614l-.65-16.684-8.231 19.398c-.048.098-.145.146-.29.146a.446.446 0 0 1-.324-.146l-8.881-19.178-.325 15.438c-.024 1.295.192 2.212.65 2.75.457.538 1.263.806 2.419.806.048 0 .072.074.072.22 0 .147-.024.22-.072.22-.674 0-1.192-.012-1.553-.036l-1.95-.037-1.877.037a21.41 21.41 0 0 1-1.444.036c-.048 0-.072-.073-.072-.22 0-.146.024-.22.072-.22 1.011 0 1.74-.275 2.184-.825.446-.55.68-1.46.704-2.731l.325-17.015c-.722-.978-1.709-1.467-2.96-1.467-.048 0-.072-.073-.072-.22 0-.146.024-.22.072-.22l1.336.037c.24.025.577.037 1.01.037.434 0 .8-.012 1.102-.037.3-.024.535-.037.704-.037a.99.99 0 0 1 .776.349c.204.232.5.751.884 1.558l8.051 17.235 7.87-18.225c.265-.611.626-.917 1.084-.917.12 0 .294.013.523.037.229.025.536.037.92.037l1.697-.037c.265-.024.662-.037 1.192-.037.072 0 .108.074.108.22 0 .147-.036.22-.108.22-1.204 0-2.064.178-2.581.532-.518.355-.765 1.02-.74 1.999l.721 16.977c.025.758.115 1.308.271 1.65.157.343.44.575.849.697s1.07.183 1.985.183zm31.115 0c.097 0 .145.074.145.22 0 .147-.048.22-.145.22-.457 0-1.167-.024-2.13-.073a46.513 46.513 0 0 0-2.094-.073c-.529 0-1.203.024-2.021.073-.77.049-1.36.073-1.77.073-.096 0-.144-.073-.144-.22 0-.146.048-.22.145-.22.89 0 1.54-.085 1.95-.256.408-.171.613-.465.613-.88 0-.343-.156-.868-.47-1.577l-3.212-6.93h-8.593l-2.274 5.427c-.337.83-.506 1.503-.506 2.016 0 .758.295 1.314.885 1.669.59.354 1.474.531 2.653.531.12 0 .18.074.18.22 0 .147-.06.22-.18.22-.433 0-1.059-.024-1.877-.073a45.428 45.428 0 0 0-2.383-.073c-.625 0-1.348.024-2.166.073-.722.049-1.324.073-1.805.073-.12 0-.18-.073-.18-.22 0-.146.06-.22.18-.22.674 0 1.246-.128 1.715-.385.47-.256.914-.708 1.336-1.356.42-.648.884-1.583 1.39-2.805l7.617-18.262c.048-.073.133-.11.253-.11s.192.037.217.11l8.52 18.225c.818 1.809 1.516 3.025 2.094 3.648.577.624 1.263.935 2.057.935zm-17.437-10.377h7.979l-4.224-9.057-3.755 9.057zm47.218 10.377c.048 0 .072.074.072.22 0 .147-.024.22-.072.22h-4.657c-.602 0-1.733-1.014-3.394-3.043-1.66-2.03-3.634-4.816-5.92-8.36-.65.146-1.325.22-2.023.22-.144 0-.685-.037-1.624-.11v8.323c0 .758.072 1.308.217 1.65.144.343.427.575.848.697s1.089.183 2.004.183c.072 0 .108.074.108.22 0 .147-.036.22-.108.22a33.16 33.16 0 0 1-1.77-.036l-2.49-.037-2.455.037c-.434.024-1.047.036-1.842.036-.048 0-.072-.073-.072-.22 0-.146.024-.22.072-.22.915 0 1.589-.06 2.022-.183.433-.122.728-.36.885-.715.156-.354.234-.898.234-1.632V86.034c0-.734-.072-1.272-.216-1.614-.145-.342-.428-.58-.849-.715-.421-.134-1.089-.202-2.003-.202-.073 0-.109-.073-.109-.22 0-.146.036-.22.109-.22l1.769.037c1.01.049 1.829.073 2.455.073.529 0 1.022-.012 1.48-.036a48.4 48.4 0 0 0 1.155-.074c.89-.073 1.697-.11 2.419-.11 1.901 0 3.37.44 4.404 1.32 1.035.88 1.553 2.054 1.553 3.52 0 1.32-.38 2.513-1.138 3.576-.758 1.063-1.762 1.9-3.014 2.512 2.022 2.958 3.725 5.274 5.108 6.949 1.384 1.674 2.612 2.878 3.683 3.611 1.07.734 2.124 1.1 3.159 1.1zm-17.618-11.734c.602.098 1.312.147 2.13.147 1.877 0 3.219-.416 4.025-1.247.807-.83 1.21-2.114 1.21-3.85 0-1.907-.415-3.276-1.246-4.107-.83-.831-2.04-1.247-3.628-1.247-.939 0-1.589.172-1.95.514-.36.342-.541 1.039-.541 2.09v7.7zm45.413 11.734c.072 0 .108.074.108.22 0 .147-.036.22-.108.22h-4.044c-.192 0-.535.007-1.029.019-.493.012-1.185-.611-2.076-1.87a94.397 94.397 0 0 0-2.563-3.466l-5.524-7.077-1.191 1.174v8.25c0 .734.072 1.278.217 1.632.144.355.427.593.848.715s1.09.183 2.004.183c.072 0 .108.074.108.22 0 .147-.036.22-.108.22-.722 0-1.3-.012-1.733-.036l-2.527-.037-2.455.037a34.06 34.06 0 0 1-1.805.036c-.049 0-.073-.073-.073-.22 0-.146.024-.22.073-.22.914 0 1.582-.06 2.003-.183.421-.122.71-.36.867-.715.156-.354.234-.898.234-1.632V86.034c0-.734-.072-1.272-.216-1.614-.145-.342-.427-.58-.849-.715-.42-.134-1.089-.202-2.003-.202-.048 0-.073-.073-.073-.22 0-.146.025-.22.073-.22l1.805.037c1.01.049 1.817.073 2.419.073.698 0 1.552-.024 2.563-.073l1.697-.037c.072 0 .108.074.108.22 0 .147-.036.22-.108.22-.89 0-1.547.074-1.968.22-.421.147-.71.398-.866.752-.157.355-.235.899-.235 1.632v7.737l7.726-7.81c.794-.807 1.191-1.406 1.191-1.797 0-.49-.71-.734-2.13-.734-.048 0-.072-.073-.072-.22 0-.146.024-.22.072-.22l1.553.037a44.274 44.274 0 0 0 5.127 0l1.335-.037c.072 0 .108.074.108.22 0 .147-.036.22-.108.22-.987 0-2.034.22-3.14.66-1.108.44-2.143 1.137-3.106 2.09l-5.704 5.684 5.199 6.747c1.757 2.323 3.099 3.96 4.025 4.914.927.953 1.643 1.516 2.148 1.687.506.17 1.24.256 2.203.256zm22.487-5.023c0-.05.048-.074.145-.074.072 0 .138.013.198.037.06.025.09.061.09.11a34.746 34.746 0 0 0-.324 4.84c0 .196-.043.337-.127.422-.084.086-.234.128-.451.128h-15.127c-.048 0-.072-.073-.072-.22 0-.146.024-.22.072-.22.915 0 1.583-.06 2.004-.183.421-.122.71-.36.866-.715.157-.354.235-.898.235-1.632V86.034c0-.734-.078-1.272-.235-1.614-.156-.342-.445-.58-.866-.715-.421-.134-1.09-.202-2.004-.202-.048 0-.072-.073-.072-.22 0-.146.024-.22.072-.22h14.513c.217 0 .325.11.325.33l.072 4.51c0 .074-.06.117-.18.129-.12.012-.193-.018-.217-.092-.072-1.295-.457-2.304-1.155-3.025-.698-.721-1.625-1.082-2.78-1.082h-2.202c-.843 0-1.462.068-1.86.202-.397.135-.673.367-.83.697-.156.33-.234.825-.234 1.485v7.444h4.404c1.155 0 1.98-.196 2.473-.587.493-.391.74-1.051.74-1.98 0-.049.072-.073.217-.073.144 0 .216.024.216.073l-.036 2.97c0 .709.012 1.247.036 1.614l.036 1.76c0 .049-.072.073-.216.073-.145 0-.217-.024-.217-.073 0-1.076-.259-1.846-.776-2.31-.517-.465-1.378-.697-2.581-.697h-4.296v8.434c0 .684.072 1.185.216 1.503.145.318.41.538.794.66.385.122.987.183 1.806.183h2.888c1.155 0 2.118-.415 2.888-1.246s1.288-1.98 1.552-3.447zm14.076-16.795c-1.516 0-2.653.392-3.412 1.174-.758.782-1.305 2.114-1.642 3.997 0 .049-.066.073-.199.073-.132 0-.198-.024-.198-.073.096-.88.204-2.03.325-3.447.12-1.418.18-2.481.18-3.19 0-.123.066-.184.199-.184.132 0 .198.061.198.184 0 .537.65.806 1.95.806 2.046.074 4.464.11 7.256.11 1.42 0 2.925-.024 4.513-.073l2.455-.037c.867 0 1.51-.06 1.932-.183.42-.122.692-.367.812-.733.024-.098.096-.147.216-.147s.181.049.181.147c-.072.709-.144 1.784-.217 3.227a73.349 73.349 0 0 0-.108 3.52c0 .049-.072.073-.217.073-.144 0-.216-.024-.216-.073-.072-1.907-.457-3.245-1.155-4.015-.698-.77-1.854-1.156-3.466-1.156-1.083 0-1.853.05-2.31.147-.458.098-.771.306-.94.623-.168.318-.252.856-.252 1.614v16.904c0 .758.084 1.308.253 1.65.168.343.493.575.974.697.482.122 1.24.183 2.275.183.072 0 .108.074.108.22 0 .147-.036.22-.108.22-.794 0-1.432-.012-1.914-.036l-2.816-.037-2.707.037c-.482.024-1.144.036-1.986.036-.048 0-.072-.073-.072-.22 0-.146.024-.22.072-.22 1.035 0 1.793-.06 2.275-.183.48-.122.812-.36.992-.715.18-.354.271-.898.271-1.632V86.034c0-.758-.084-1.29-.253-1.596-.168-.305-.481-.5-.938-.586-.458-.086-1.228-.129-2.31-.129z" id="logo"/>
    </g>
  </g>
</svg>
