<svg width="20" height="17" xmlns="http://www.w3.org/2000/svg">
  <g id="Page-1" fill="none" fill-rule="evenodd">
    <g id="Market-desktop" transform="translate(-1240 -465)" fill="#767673" fill-rule="nonzero">
      <g id="Item-1" transform="translate(170 170)">
        <g id="social" transform="translate(1030 292)">
          <path d="M59.96 5.024a8.05 8.05 0 0 1-2.353.676 4.293 4.293 0 0 0 1.802-2.373 8.245 8.245 0 0 1-2.606 1.032A4.002 4.002 0 0 0 53.811 3c-2.264 0-4.1 1.92-4.1 4.285 0 .34.038.667.106.98-3.408-.169-6.429-1.88-8.45-4.468a4.35 4.35 0 0 0-.555 2.157c0 1.49.725 2.8 1.823 3.57a3.952 3.952 0 0 1-1.857-.537v.053c0 2.079 1.411 3.812 3.288 4.207a3.992 3.992 0 0 1-1.843.074c.526 1.702 2.038 2.943 3.837 2.978A7.997 7.997 0 0 1 40 18.075C41.824 19.29 43.973 20 46.297 20c7.545 0 11.666-6.533 11.666-12.189 0-.182 0-.366-.013-.549A8.5 8.5 0 0 0 60 5.042l-.04-.018z" id="Shape"/>
        </g>
      </g>
    </g>
  </g>
</svg>